<svg version="1.2" xmlns="http://www.w3.org/2000/svg" viewBox="0 0 512 512" width="512" height="512">
	<title>marker</title>
	<style>
		.s0 { fill: #000000 } 
	</style>
	<path id="Path 0" class="s0" d="m254.8 0.1c14.1-0.1 20.9 0.4 30.4 1.9 6.8 1.2 17.2 3.4 23.3 4.9 6.1 1.6 15.9 4.9 22 7.3 6.1 2.4 14.8 6.5 19.5 9 4.7 2.5 12.2 7.2 16.7 10.5 4.5 3.2 11.4 8.7 15.4 12.3 4 3.6 10.3 10.1 13.9 14.5 3.7 4.4 8.5 10.7 10.7 14 2.2 3.3 6.1 9.8 8.6 14.5 2.5 4.7 6.1 12.8 8 18 2 5.2 4.7 14 6.2 19.5 1.4 5.5 3.4 16.2 4.5 23.8 1.1 7.7 2 19 2 25.9 0 6.8-0.7 16.1-1.5 20.8-0.8 4.7-2.8 13.4-4.4 19.5-1.7 6.1-5 16.4-7.4 23-2.5 6.6-6.6 16.9-9.3 23-2.6 6.1-8.9 19.1-13.9 29-5.1 9.9-13.9 26.1-19.5 36-5.7 9.9-14.4 24.5-19.3 32.5-5 8-15.5 24.4-23.5 36.5-7.9 12.1-20.5 30.8-28 41.5-7.5 10.7-22.3 31.5-32.9 46.3-10.6 14.7-19.7 26.7-20.3 26.7-0.6 0-5.4-5.7-10.8-12.7-5.4-7.1-15.3-20.2-21.9-29.3-6.6-9.1-17.4-24.4-24-34-6.7-9.6-17.9-26.5-25-37.5-7.2-11-18.2-28.6-24.5-39-6.3-10.4-15.1-25.5-19.5-33.5-4.4-8-10.5-19.2-13.6-25-3-5.8-8.5-17-12.2-25-3.7-8-8.9-19.9-11.5-26.5-2.6-6.6-6.4-17.2-8.4-23.5-2-6.3-4.8-16.9-6.1-23.5-1.9-8.9-2.5-15.1-2.5-24 0-6.6 0.7-17.4 1.6-24 0.8-6.6 2.4-16.3 3.6-21.5 1.1-5.2 3.6-14 5.5-19.5 1.9-5.5 5.4-14 7.8-19 2.4-4.9 6.7-12.6 9.6-17 2.8-4.4 7.7-11.2 10.9-15 3.1-3.8 8.8-9.9 12.6-13.4 3.8-3.5 9.6-8.4 12.9-11 3.3-2.5 10.5-7.3 16-10.6 5.5-3.3 15.6-8.4 22.5-11.2 6.9-2.8 17-6.4 22.5-7.9 5.5-1.5 15.6-3.7 22.5-4.9 9.7-1.8 16.6-2.3 30.7-2.4z"/>
</svg>